<svg version="1.1" id="Layer_1" xmlns="http://www.w3.org/2000/svg" xmlns:xlink="http://www.w3.org/1999/xlink" x="0px" y="0px"
	 width="100%" viewBox="0 0 1000 1000" enable-background="new 0 0 1000 1000" xml:space="preserve">
<path fill="none" opacity="1.000000" stroke="none" 
	d="
M662.000000,1001.000000 
	C441.333344,1001.000000 221.166672,1001.000000 1.000000,1001.000000 
	C1.000000,667.666687 1.000000,334.333344 1.000000,1.000000 
	C334.333344,1.000000 667.666687,1.000000 1001.000000,1.000000 
	C1001.000000,334.333344 1001.000000,667.666687 1001.000000,1001.000000 
	C888.166687,1001.000000 775.333313,1001.000000 662.000000,1001.000000 
M557.670349,775.092285 
	C562.331543,772.347168 567.132874,769.812622 571.629761,766.820618 
	C591.633240,753.511353 609.809326,738.156189 625.693481,719.984314 
	C638.869812,704.910278 650.133606,688.626343 659.427795,670.989746 
	C668.322083,654.112122 675.042114,636.343628 680.135132,617.925659 
	C686.425476,595.177551 690.127991,572.004395 690.836182,548.486267 
	C691.345520,531.571777 690.626526,514.599060 689.898132,497.676300 
	C689.431458,486.832550 688.749756,475.882355 686.751648,465.245300 
	C683.068970,445.639679 678.806702,426.114044 673.956421,406.763031 
	C665.122314,371.517639 652.361877,337.575317 636.291260,305.058258 
	C623.412537,278.999634 609.647034,253.299774 594.798279,228.318466 
	C581.998047,206.783478 567.492737,186.219803 553.026367,165.731400 
	C542.427856,150.720901 530.819824,136.409805 519.365295,122.022987 
	C514.021240,115.310890 508.072754,109.064461 502.138306,102.855362 
	C501.280731,101.958084 498.128571,101.690956 497.450195,102.429398 
	C491.320526,109.101616 485.198364,115.825462 479.661072,122.988068 
	C467.314941,138.958130 454.598785,154.712006 443.326050,171.425797 
	C426.095367,196.973175 409.295166,222.864685 393.580872,249.362488 
	C382.703033,267.704956 373.436951,287.070251 364.423584,306.431458 
	C356.408142,323.649078 349.076721,341.252808 342.610382,359.108734 
	C331.785065,389.001465 322.526062,419.415680 317.951477,451.008484 
	C315.387482,468.715851 311.963440,486.446167 311.344666,504.250153 
	C310.580109,526.247681 311.698212,548.375977 313.221161,570.363403 
	C314.145233,583.704346 316.656403,597.054199 319.722290,610.102173 
	C325.251587,633.633972 333.737762,656.099182 345.566589,677.348328 
	C355.554260,695.290039 367.396851,711.831970 381.431580,726.640320 
	C390.841858,736.569397 401.195557,745.761536 411.971558,754.205811 
	C433.167969,770.815674 456.789703,783.378357 482.010254,792.778870 
	C485.468140,794.067688 486.057861,795.652100 486.049805,798.802490 
	C485.967957,830.797363 486.000000,862.792419 486.000092,894.787476 
	C486.000092,896.721802 486.000031,898.656067 486.000031,900.557495 
	C497.053955,900.557495 507.423767,900.557495 518.000000,900.557495 
	C518.000000,898.121033 518.000000,896.126648 518.000000,894.132202 
	C518.000000,862.637085 518.103149,831.141296 517.883301,799.647705 
	C517.852112,795.180237 519.602112,793.585388 523.382202,791.876282 
	C534.748291,786.737427 545.844727,781.002136 557.670349,775.092285 
z"/>
<path fill="#6BA342" opacity="1.000000" stroke="none" 
	d="
M557.358398,775.295898 
	C545.844727,781.002136 534.748291,786.737427 523.382202,791.876282 
	C519.602112,793.585388 517.852112,795.180237 517.883301,799.647705 
	C518.103149,831.141296 518.000000,862.637085 518.000000,894.132202 
	C518.000000,896.126648 518.000000,898.121033 518.000000,900.557495 
	C507.423767,900.557495 497.053955,900.557495 486.000031,900.557495 
	C486.000031,898.656067 486.000092,896.721802 486.000092,894.787476 
	C486.000000,862.792419 485.967957,830.797363 486.049805,798.802490 
	C486.057861,795.652100 485.468140,794.067688 482.010254,792.778870 
	C456.789703,783.378357 433.167969,770.815674 411.971558,754.205811 
	C401.195557,745.761536 390.841858,736.569397 381.431580,726.640320 
	C367.396851,711.831970 355.554260,695.290039 345.566589,677.348328 
	C333.737762,656.099182 325.251587,633.633972 319.722290,610.102173 
	C316.656403,597.054199 314.145233,583.704346 313.221161,570.363403 
	C311.698212,548.375977 310.580109,526.247681 311.344666,504.250153 
	C311.963440,486.446167 315.387482,468.715851 317.951477,451.008484 
	C322.526062,419.415680 331.785065,389.001465 342.610382,359.108734 
	C349.076721,341.252808 356.408142,323.649078 364.423584,306.431458 
	C373.436951,287.070251 382.703033,267.704956 393.580872,249.362488 
	C409.295166,222.864685 426.095367,196.973175 443.326050,171.425797 
	C454.598785,154.712006 467.314941,138.958130 479.661072,122.988068 
	C485.198364,115.825462 491.320526,109.101616 497.450195,102.429398 
	C498.128571,101.690956 501.280731,101.958084 502.138306,102.855362 
	C508.072754,109.064461 514.021240,115.310890 519.365295,122.022987 
	C530.819824,136.409805 542.427856,150.720901 553.026367,165.731400 
	C567.492737,186.219803 581.998047,206.783478 594.798279,228.318466 
	C609.647034,253.299774 623.412537,278.999634 636.291260,305.058258 
	C652.361877,337.575317 665.122314,371.517639 673.956421,406.763031 
	C678.806702,426.114044 683.068970,445.639679 686.751648,465.245300 
	C688.749756,475.882355 689.431458,486.832550 689.898132,497.676300 
	C690.626526,514.599060 691.345520,531.571777 690.836182,548.486267 
	C690.127991,572.004395 686.425476,595.177551 680.135132,617.925659 
	C675.042114,636.343628 668.322083,654.112122 659.427795,670.989746 
	C650.133606,688.626343 638.869812,704.910278 625.693481,719.984314 
	C609.809326,738.156189 591.633240,753.511353 571.629761,766.820618 
	C567.132874,769.812622 562.331543,772.347168 557.358398,775.295898 
M487.000275,703.685791 
	C487.000183,729.842041 487.000061,755.998352 487.000000,782.154602 
	C486.999969,793.484314 487.044647,793.354065 498.068512,797.128296 
	C504.830353,799.443420 510.090088,795.445984 515.801880,793.399536 
	C516.523682,793.140930 516.956116,791.117493 516.947021,789.916016 
	C516.677917,754.320129 516.390381,718.724121 515.973877,683.129639 
	C515.840027,671.688965 515.347717,660.252258 514.997131,648.814453 
	C514.682190,638.541809 514.323120,628.270569 514.007568,617.997986 
	C513.330444,595.954590 512.672119,573.910706 511.999420,551.867249 
	C511.675751,541.261719 511.328583,530.656799 511.006744,520.051208 
	C510.332794,497.841187 509.677002,475.630615 508.996674,453.420776 
	C508.687073,443.314606 508.321228,433.210114 508.009430,423.104004 
	C507.656555,411.666260 507.347778,400.227142 506.997192,388.789337 
	C506.682312,378.516693 506.287933,368.246277 506.016510,357.972595 
	C505.635132,343.536682 505.359283,329.098053 504.992401,314.661713 
	C504.693207,302.889282 504.292847,291.119385 504.007721,279.346649 
	C503.900940,274.936432 504.032654,270.520721 503.963104,266.109009 
	C503.947906,265.144501 503.538086,264.186188 502.976654,261.820190 
	C502.373383,263.843384 502.077881,264.403442 502.054810,264.974518 
	C501.353485,282.352112 500.668823,299.730408 500.004211,317.109467 
	C499.649628,326.381073 499.318481,335.653717 499.008942,344.926941 
	C498.328766,365.304138 497.677521,385.682312 496.997223,406.059509 
	C496.687653,415.332733 496.317200,424.603973 496.009552,433.877258 
	C495.328033,454.421021 494.676208,474.965790 493.997070,495.509613 
	C493.685028,504.949371 493.324463,514.387512 493.008301,523.827087 
	C492.331329,544.037842 491.674835,564.249207 490.997864,584.459961 
	C490.681671,593.899536 490.319641,603.337585 490.009552,612.777405 
	C489.329254,633.487854 488.678802,654.199158 487.995667,674.909546 
	C487.689758,684.182983 487.334290,693.454834 487.000275,703.685791 
z"/>
<path fill="none" opacity="1.000000" stroke="none" 
	d="
M487.000793,703.206604 
	C487.334290,693.454834 487.689758,684.182983 487.995667,674.909546 
	C488.678802,654.199158 489.329254,633.487854 490.009552,612.777405 
	C490.319641,603.337585 490.681671,593.899536 490.997864,584.459961 
	C491.674835,564.249207 492.331329,544.037842 493.008301,523.827087 
	C493.324463,514.387512 493.685028,504.949371 493.997070,495.509613 
	C494.676208,474.965790 495.328033,454.421021 496.009552,433.877258 
	C496.317200,424.603973 496.687653,415.332733 496.997223,406.059509 
	C497.677521,385.682312 498.328766,365.304138 499.008942,344.926941 
	C499.318481,335.653717 499.649628,326.381073 500.004211,317.109467 
	C500.668823,299.730408 501.353485,282.352112 502.054810,264.974518 
	C502.077881,264.403442 502.373383,263.843384 502.976654,261.820190 
	C503.538086,264.186188 503.947906,265.144501 503.963104,266.109009 
	C504.032654,270.520721 503.900940,274.936432 504.007721,279.346649 
	C504.292847,291.119385 504.693207,302.889282 504.992401,314.661713 
	C505.359283,329.098053 505.635132,343.536682 506.016510,357.972595 
	C506.287933,368.246277 506.682312,378.516693 506.997192,388.789337 
	C507.347778,400.227142 507.656555,411.666260 508.009430,423.104004 
	C508.321228,433.210114 508.687073,443.314606 508.996674,453.420776 
	C509.677002,475.630615 510.332794,497.841187 511.006744,520.051208 
	C511.328583,530.656799 511.675751,541.261719 511.999420,551.867249 
	C512.672119,573.910706 513.330444,595.954590 514.007568,617.997986 
	C514.323120,628.270569 514.682190,638.541809 514.997131,648.814453 
	C515.347717,660.252258 515.840027,671.688965 515.973877,683.129639 
	C516.390381,718.724121 516.677917,754.320129 516.947021,789.916016 
	C516.956116,791.117493 516.523682,793.140930 515.801880,793.399536 
	C510.090088,795.445984 504.830353,799.443420 498.068512,797.128296 
	C487.044647,793.354065 486.999969,793.484314 487.000000,782.154602 
	C487.000061,755.998352 487.000183,729.842041 487.000793,703.206604 
z"/>
</svg>